<svg width="2250" height="2250.000011" xmlns="http://www.w3.org/2000/svg" version="1.0" preserveAspectRatio="xMidYMid meet" zoomAndPan="magnify">
 <defs>
  <clipPath id="clip-0">
   <path id="svg_1" clip-rule="nonzero" d="m0.5,0l2249,0l0,2249l-2249,0l0,-2249zm0,0"/>
  </clipPath>
  <clipPath id="clip-1">
   <path id="svg_2" clip-rule="nonzero" d="m656,656l938,0l0,937.875l-938,0l0,-937.875zm0,0"/>
  </clipPath>
 </defs>
 <g>
  <title>Layer 1</title>
  <g stroke-width="0" id="svg_9">
   <path id="svg_6" fill-rule="nonzero" d="m658.94735,1685.42748c0,-33.52452 -27.15235,-60.70832 -60.63806,-60.70832c-33.49502,0 -60.63804,27.1838 -60.63804,60.70832c0,33.52452 27.14302,60.70832 60.63804,60.70832c33.48571,0 60.63806,-27.1838 60.63806,-60.70832" fill="rgb(92.939758%, 80.778503%, 54.899597%)"/>
   <path id="svg_8" fill-rule="nonzero" d="m2242.10299,63.88685c0,-32.38523 -27.40417,-59.90522 -59.82656,-59.90522c-70.21738,0 -140.42542,0 -210.6428,0c-168.56648,0 -337.15164,0 -505.73677,0c-203.12483,0 -406.22171,0 -609.34656,0c-176.36425,0 -352.70988,0 -529.07414,0c-85.59843,0 -171.7658,-2.86686 -257.34558,0c-1.19392,0.03734 -2.41582,0 -3.62839,0c-32.34774,0 -59.83587,27.44528 -59.83587,59.90522c0,111.81687 0,223.65241 0,335.46928c0,77.0877 119.67174,77.21844 119.67174,0c0,-91.8609 0,-183.70313 0,-275.56404c50.25655,0 100.52242,0 150.78828,0c168.58513,0 337.17028,0 505.75541,0c203.09687,0 406.22171,0 609.34656,0c176.36425,0 352.70988,0 529.06483,0c57.98902,0 115.96872,0 173.95777,0c8.99169,0 18.07668,0.18675 27.18965,0.3922c0,50.19338 0,100.37744 0,150.57082c0,168.78054 0,337.56106 0,506.34158c0,203.33226 0,406.69253 0,610.05278c0,176.54999 0,353.10932 0,529.678c0,58.05623 0,116.10313 0,174.15938c0,9.00214 -0.20521,18.09763 -0.39177,27.22116c-50.13527,0 -100.27988,0 -150.41516,0c-168.56648,0 -337.15164,0 -505.73677,0c-203.12483,0 -406.22171,0 -609.34656,0c-176.36425,0 -352.70988,0 -529.07414,0c-57.97971,0 -115.96875,0 -173.94845,0c-9.00103,0 -18.08601,-0.20545 -27.18965,-0.3922c0,-71.75555 0,-143.51107 0,-215.26662c138.3454,0 276.68149,0 415.02688,0c98.84346,0 197.66826,0 296.50238,0c73.7152,0 146.07789,0.44824 219.29874,-11.4581c317.72244,-51.66884 582.08229,-313.69234 638.10323,-630.81183c28.88724,-163.411 6.65983,-330.12776 -64.50896,-480.06358c-67.29786,-141.74613 -180.53366,-262.37836 -316.23004,-340.60533c-122.45135,-70.59759 -260.45163,-104.15947 -401.28748,-104.15947c-95.38295,0 -190.75659,0 -286.1582,0c-8.93575,0 -17.88083,0 -26.83522,0c-32.32909,0 -59.83587,27.43596 -59.83587,59.90524c0,124.39554 0,248.79111 0,373.18668c0,196.47794 0,392.96519 0,589.45248c0,45.51489 0,91.02046 0,136.52601c0,77.09705 119.67176,77.22779 119.67176,0c0,-124.39554 0,-248.79111 0,-373.20535c0,-196.46859 0,-392.94652 0,-589.43381c0,-25.55893 0,-51.08986 0,-76.63011c63.22175,0 126.42485,0 189.61862,0c32.03063,0 64.13586,-0.59765 96.14783,0.28948c73.34208,1.9984 140.12694,15.04401 213.50634,42.28384c28.88726,10.74838 57.15889,23.9434 89.28279,42.10641c15.5769,8.79669 30.80871,18.17234 45.67673,28.09897c7.87242,5.23877 15.63289,10.62699 23.28143,16.17393c6.79042,4.90261 14.92399,11.20597 15.42768,11.59817c28.62608,22.89754 55.55457,47.94286 80.44031,74.8652c12.09777,13.08297 23.7105,26.60484 34.81953,40.52826c0.65293,0.82177 4.74769,6.06989 9.73792,12.8962c6.19346,8.48852 12.19104,17.1171 18.00206,25.85775c80.86005,121.51004 118.64573,257.15826 111.87396,402.593c-3.30193,70.98981 -18.22592,140.43878 -46.29236,212.30638c-4.9902,12.76545 -9.76588,23.58854 -18.32852,41.01384c-8.37608,17.05174 -17.4051,33.77663 -27.09636,50.11867c-9.12231,15.38953 -18.78558,30.41487 -29.01785,45.09467c-4.80366,6.89166 -9.70059,13.6993 -14.74677,20.42288c-3.57242,4.73452 -6.77177,8.74065 -14.06585,17.48131c-93.71335,112.43319 -213.08663,188.79252 -352.57929,224.06328c-57.43872,14.53041 -101.39921,19.5264 -162.57824,19.69448c-19.07472,0.05604 -38.14945,0 -57.22419,0c-88.59254,0 -177.18507,0 -265.77761,0c-174.63868,0 -349.26803,0 -523.91605,0c-3.24596,0 -6.51992,0 -9.77521,0c-18.34717,0 -32.27312,6.83565 -41.88044,17.18248c-10.79191,9.64648 -17.95542,23.85005 -17.95542,42.72276c0,111.81687 0,223.65241 0,335.46925c0,32.38525 27.41351,59.89589 59.83587,59.89589c70.21738,0 140.42542,0 210.62415,0c168.58513,0 337.17028,0 505.75541,0c203.09687,0 406.22171,0 609.34656,0c176.36425,0 352.70988,0 529.06483,0c85.60774,0 171.7658,2.86686 257.33624,0c1.21257,-0.05604 2.42514,0 3.64704,0c32.34776,0 59.82656,-27.43593 59.82656,-59.89589c0,-70.29876 0,-140.58817 0,-210.88693c0,-168.76185 0,-337.54236 0,-506.3229c0,-203.36025 0,-406.71118 0,-610.05278c0,-176.56866 0,-353.11864 0,-529.68733c0,-85.69761 2.86354,-171.96488 0,-257.64384c-0.03732,-1.1953 0,-2.4186 0,-3.6326" fill="rgb(92.939758%, 80.778503%, 54.899597%)"/>
  </g>
 </g>
</svg>